<svg width="30" height="10" viewBox="0 0 30 10" fill="none" xmlns="http://www.w3.org/2000/svg">
<path d="M4.36715 7.04897C4.36715 6.67886 4.37117 5.6896 4.36205 5.56771C4.37 4.09566 3.2997 3.05726 2.62353 3.13821C2.15565 3.17882 1.76353 3.3696 1.55298 3.91844C1.35784 4.42993 1.53231 5.11029 2.1811 5.26994C2.87485 5.44139 3.27994 5.58404 3.57311 5.78528C3.93234 6.03166 4.22559 6.50239 4.23338 7.04955" fill="#0060AF"/>
<path d="M4.64373 9.28699C3.42049 9.28699 2.16334 8.98571 0.907863 8.38982L0.877056 8.37467L0.862322 8.34328C0.298919 7.15401 0.000976562 5.85325 0.000976562 4.58062C0.000976562 3.3099 0.286696 2.0648 0.850518 0.877139L0.866005 0.845578L0.897399 0.82984C2.05878 0.279664 3.30814 0.000976562 4.61192 0.000976562C5.82646 0.000976562 7.12354 0.311225 8.36236 0.899742L8.39417 0.91389L8.40882 0.946037C8.98302 2.15723 9.28582 3.45766 9.28582 4.7092C9.28582 5.95589 8.99508 7.20207 8.42021 8.4125L8.40506 8.44432L8.37308 8.45905C7.22944 9.00043 5.93973 9.28699 4.64373 9.28699ZM1.02406 8.22674C2.24371 8.80044 3.46009 9.09018 4.64373 9.09018C5.89879 9.09018 7.14698 8.81584 8.25805 8.29581C8.80999 7.12287 9.08976 5.9157 9.08976 4.7092C9.08976 3.49784 8.79776 2.23776 8.24541 1.06223C7.04318 0.497072 5.78762 0.197372 4.61192 0.197372C3.34967 0.197372 2.13981 0.465093 1.01351 0.993252C0.472879 2.14442 0.197708 3.35067 0.197708 4.58062C0.197708 5.8129 0.483678 7.07348 1.02406 8.22674Z" fill="#0060AF"/>
<path d="M4.0773 7.05059C4.07956 6.57618 3.81477 6.15668 3.46869 5.93123C3.16171 5.73199 2.74958 5.60106 2.08471 5.43246C1.87919 5.37989 1.66421 5.26311 1.59766 5.11426C1.4216 5.29165 1.38962 5.69047 1.4206 5.92353C1.4566 6.19326 1.77178 6.63779 2.24636 6.6552C2.53619 6.66684 2.90261 6.59283 3.07833 6.5555C3.38146 6.49003 3.86106 6.6799 3.93741 7.05" fill="#0060AF"/>
<path d="M4.61151 0.844727C3.80684 0.844727 3.11175 1.3754 3.11426 2.29367C3.11678 3.06586 3.73778 3.47924 3.95937 3.77451C4.29423 4.21945 4.47547 4.7461 4.49431 5.55194C4.50896 6.19329 4.50821 6.82659 4.51147 7.05103H4.68911C4.68602 6.81621 4.67798 6.1439 4.68718 5.5321C4.69924 4.72601 4.88701 4.21945 5.22204 3.77451C5.44556 3.47924 6.06606 3.06586 6.0674 2.29367C6.07041 1.3754 5.37574 0.844727 4.57174 0.844727" fill="#0060AF"/>
<path d="M4.81543 7.04897C4.81543 6.67886 4.81124 5.6896 4.8202 5.56771C4.81233 4.09566 5.88196 3.05726 6.55872 3.13821C7.0266 3.17882 7.4183 3.3696 7.62943 3.91844C7.8244 4.42993 7.64894 5.11029 7.0009 5.26994C6.30682 5.44139 5.90222 5.58404 5.6083 5.78528C5.24949 6.03166 4.97675 6.50239 4.96838 7.04955" fill="#0060AF"/>
<path d="M5.10549 7.05059C5.10297 6.57618 5.36768 6.15668 5.71276 5.93123C6.02099 5.73199 6.43363 5.60106 7.09791 5.43246C7.30385 5.37989 7.51857 5.26311 7.58396 5.11426C7.76085 5.29165 7.79274 5.69047 7.76177 5.92353C7.72502 6.19326 7.41067 6.63779 6.93692 6.6552C6.64718 6.66684 6.27884 6.59283 6.10387 6.5555C5.80191 6.49003 5.32097 6.6799 5.24429 7.05" fill="#0060AF"/>
<path d="M5.35395 8.5817L5.25098 7.83036L5.49953 7.79269C5.56005 7.7844 5.63372 7.79494 5.66319 7.83287C5.69575 7.87247 5.70572 7.9052 5.712 7.9571C5.72137 8.02131 5.70279 8.09557 5.63046 8.13257V8.13482C5.71124 8.13482 5.76005 8.19284 5.7742 8.29079C5.77629 8.31146 5.7824 8.36144 5.77629 8.40313C5.75988 8.50233 5.70069 8.53423 5.60082 8.54821L5.35395 8.5817ZM5.51393 8.44717C5.54339 8.44297 5.57328 8.4414 5.59664 8.42649C5.63238 8.40314 5.62912 8.35316 5.62418 8.31608C5.6117 8.23454 5.59044 8.20357 5.50396 8.21637L5.44963 8.22474L5.48404 8.45136L5.51393 8.44717ZM5.46185 8.1C5.49475 8.09467 5.53937 8.09071 5.55796 8.05949C5.56767 8.03864 5.58014 8.02207 5.57194 7.97569C5.56181 7.92069 5.54356 7.88662 5.47374 7.89984L5.4087 7.91031L5.43431 8.10285" fill="#0060AF"/>
<path d="M6.43014 8.13013C6.43206 8.14411 6.43433 8.15968 6.43516 8.17366C6.45525 8.3107 6.43014 8.42414 6.2761 8.45536C6.0484 8.49923 6.00478 8.35775 5.96468 8.15968L5.94333 8.05253C5.91194 7.86299 5.89846 7.71951 6.12047 7.6753C6.24563 7.65245 6.32834 7.70226 6.36275 7.82683C6.3681 7.84541 6.3748 7.86383 6.37731 7.8825L6.24111 7.91063C6.22537 7.86383 6.20452 7.7802 6.14325 7.78723C6.03324 7.80046 6.06958 7.93733 6.08088 7.99451L6.12181 8.2002C6.13412 8.2624 6.15857 8.36177 6.25375 8.3426C6.33102 8.32711 6.29737 8.20673 6.2905 8.15742" fill="#0060AF"/>
<path d="M6.64967 8.35682L6.60254 7.57927L6.78554 7.52344L7.16921 8.19969L7.02513 8.2428L6.93422 8.07094L6.77424 8.11899L6.79492 8.31438L6.64967 8.35682ZM6.76084 7.99341L6.87645 7.95993L6.72292 7.64532" fill="#0060AF"/>
<path d="M2.12969 7.76983C2.18695 7.58649 2.23827 7.45154 2.45676 7.51148C2.57371 7.54413 2.64621 7.5957 2.64278 7.73157C2.64221 7.76179 2.63223 7.79259 2.6257 7.82248L2.48966 7.7849C2.50749 7.70989 2.5188 7.65037 2.42637 7.6219C2.31955 7.5926 2.29352 7.72211 2.27879 7.77803L2.22345 7.98188C2.20587 8.04241 2.18477 8.14244 2.27879 8.16823C2.35647 8.18915 2.4036 8.11289 2.43173 8.00155L2.33655 7.97635L2.36945 7.8584L2.59322 7.93039L2.48698 8.32327L2.38402 8.29531L2.4072 8.21226H2.40427C2.35689 8.28016 2.29904 8.28727 2.24839 8.27756C2.02462 8.21703 2.04798 8.07078 2.10139 7.87539" fill="#0060AF"/>
<path d="M2.96225 8.10112L2.89486 8.42074L2.74316 8.38793L2.90482 7.6416L3.16341 7.70004C3.31477 7.73269 3.36048 7.80008 3.33905 7.9388C3.32683 8.01841 3.28756 8.10421 3.19171 8.09727L3.1907 8.09596C3.27174 8.12434 3.27861 8.16519 3.26446 8.23585C3.25835 8.2659 3.21624 8.44832 3.24529 8.47779L3.24629 8.50014L3.08933 8.4592C3.0828 8.40864 3.10498 8.31773 3.11377 8.26741C3.12264 8.22288 3.13679 8.16009 3.09159 8.13648C3.05617 8.11764 3.04303 8.11857 3.00302 8.10936L2.96225 8.10112ZM2.98811 7.98551L3.09025 8.01305C3.15228 8.02201 3.18677 7.98986 3.19899 7.91494C3.21004 7.8462 3.19573 7.81933 3.14006 7.80602L3.03056 7.78384" fill="#0060AF"/>
<path d="M3.93453 7.80846L4.08455 7.82587L4.01992 8.35052C3.98853 8.51686 3.92424 8.58961 3.74123 8.56683C3.55505 8.54331 3.51085 8.45851 3.52215 8.29082L3.5872 7.7666L3.73839 7.78393L3.67351 8.29643C3.66664 8.3521 3.65375 8.43456 3.75279 8.44452C3.8406 8.45122 3.86053 8.39304 3.87041 8.32071" fill="#0060AF"/>
<path d="M4.25098 8.59596L4.2961 7.8457L4.58433 7.85818C4.72053 7.86487 4.7562 7.97613 4.75193 8.08228C4.74799 8.14683 4.72782 8.21891 4.67156 8.258C4.62543 8.29124 4.56616 8.2991 4.51116 8.29643L4.41723 8.29122L4.39848 8.60565L4.25098 8.59596ZM4.4215 8.1768L4.49785 8.18107C4.55989 8.18332 4.60099 8.1588 4.60635 8.06772C4.60936 7.98024 4.57629 7.96542 4.49593 7.9619L4.4354 7.95983" fill="#0060AF"/>
<path d="M24.5794 1.5698L23.4339 3.64903C23.0015 3.29792 22.4735 3.0395 21.7998 3.0395C20.2057 3.0395 19.5581 4.22783 19.5581 5.0649C19.5581 5.68624 19.965 6.603 21.3834 6.603C21.9788 6.603 22.8253 6.18878 23.0689 6.00034L21.9359 8.41259C21.3958 8.52033 21.2184 8.58713 20.7613 8.60128C18.2224 8.67704 17.1965 7.11743 17.1973 5.52374C17.1989 3.41697 19.0721 0.854785 22.1772 0.854785C22.3675 0.854785 22.6002 0.920585 22.7992 0.993501L23.0003 0.736328" fill="#0060AF"/>
<path d="M29.3066 0.800781L29.6309 8.35791H27.2168L27.2153 7.06183H25.5692L25.0274 8.35791H22.4092L25.1464 2.96147L24.5292 2.95745L25.7019 0.800781H29.3066ZM27.1997 3.11266L26.269 5.31077H27.2277" fill="#0060AF"/>
<path d="M15.6732 0.800828C16.8687 0.807525 17.5443 1.45648 17.5443 2.39393C17.5443 3.25812 16.8318 4.02311 16.0497 4.41866C16.8549 4.71468 16.9246 5.44133 16.9246 5.95542C16.9246 7.19742 15.6783 8.35796 14.0583 8.35796H10.5254L11.9035 3.03669L11.3374 3.03343L12.4946 0.800828C12.4946 0.800828 14.701 0.794131 15.6732 0.800828ZM14.5003 3.8648C14.7476 3.8648 15.1842 3.80218 15.2934 3.32358C15.413 2.80405 15.0032 2.79007 14.8067 2.79007L14.1043 2.78699L13.8593 3.86483L14.5003 3.8648ZM13.5072 5.20023L13.1838 6.44222H14.0109C14.3363 6.44222 14.7797 6.28074 14.8884 5.87656C14.9957 5.47121 14.6857 5.20023 14.3615 5.20023" fill="#0060AF"/>
</svg>
