<svg width="30" height="9" viewBox="0 0 30 9" fill="none" xmlns="http://www.w3.org/2000/svg">
<path fill-rule="evenodd" clip-rule="evenodd" d="M0.00292969 3.01465L2.50256 6.16784L0.00292969 8.23914V3.01465Z" fill="#C12116"/>
<path fill-rule="evenodd" clip-rule="evenodd" d="M1.00977 8.23945L2.89061 6.66602L4.19061 8.23945H1.00977Z" fill="#C12116"/>
<path fill-rule="evenodd" clip-rule="evenodd" d="M0.00292969 1.32757L0.655241 2.15271L3.3373 5.50416L4.20639 4.81209C4.20639 4.81209 3.48489 3.96267 3.00043 3.0148C2.05327 1.16161 2.72384 0.0078125 2.72384 0.0078125H0.00292969V1.32757Z" fill="#C12116"/>
<path fill-rule="evenodd" clip-rule="evenodd" d="M3.7207 6.0221L4.60581 5.29102C4.60581 5.29102 5.45115 6.40378 6.43134 6.66642C7.71582 7.0106 8.28453 6.16855 8.28453 6.16855V8.23985H5.46325L6.09942 7.68983C6.09942 7.68983 5.76751 7.9111 4.95575 7.34882C4.47663 7.01696 3.7207 6.0221 3.7207 6.0221Z" fill="#C12116"/>
<path fill-rule="evenodd" clip-rule="evenodd" d="M3.80104 0.00195312C3.80104 0.00195312 3.51868 0.386601 3.71967 1.32774C3.9345 2.3337 4.78889 3.39839 4.7869 3.37455C4.7869 3.37455 4.84183 2.31736 5.46222 1.69697C6.7846 0.374588 8.2835 1.16179 8.2835 1.16179V0.00798849L3.80104 0.00195312Z" fill="#C12116"/>
<path fill-rule="evenodd" clip-rule="evenodd" d="M8.28426 2.55615C8.28426 2.55615 7.44799 1.83984 6.72094 1.83984C5.79087 1.83984 5.2832 2.6428 5.2832 3.22526C5.2832 4.07366 5.69043 4.54507 6.09916 4.9538C6.68654 5.54118 7.40112 6.17469 8.28426 5.6648C8.28426 4.69979 8.28426 2.55615 8.28426 2.55615Z" fill="#C12116"/>
<path fill-rule="evenodd" clip-rule="evenodd" d="M17.8076 0.0878906H19.781C19.781 0.0878906 21.5292 2.73488 22.3883 3.82851C23.2475 4.92213 24.1723 6.16781 24.1723 6.16781C24.1723 6.16781 24.1723 2.55549 24.1723 0.680682C24.1723 0.443697 23.55 0.0878906 23.55 0.0878906H25.8256C25.8256 0.0878906 25.079 0.394665 25.079 0.680682C25.079 3.01462 25.079 8.66316 25.079 8.66316C25.079 8.66316 24.3625 8.26585 23.55 7.32176C22.6372 6.26101 19.3899 1.9785 19.3899 1.9785C19.3899 1.9785 19.3899 6.02136 19.3899 7.52534C19.3899 7.80942 20.0121 8.23911 20.0121 8.23911H17.8076C17.8076 8.23911 18.4121 7.80594 18.4121 7.52534C18.4121 5.50398 18.4121 2.55549 18.4121 0.680682C18.4121 0.428784 17.8076 0.0878906 17.8076 0.0878906Z" fill="#005E6A"/>
<path fill-rule="evenodd" clip-rule="evenodd" d="M27.0996 0.0878906H29.6323C29.6323 0.0878906 28.9523 0.410031 28.9523 0.680682C28.9523 2.55549 28.9523 5.66414 28.9523 7.52534C28.9523 7.82111 29.6323 8.23911 29.6323 8.23911H27.0996C27.0996 8.23911 27.7328 7.81158 27.7328 7.52534C27.7328 5.29027 27.7328 2.55549 27.7328 0.680682C27.7328 0.420473 27.0996 0.0878906 27.0996 0.0878906Z" fill="#005E6A"/>
<path fill-rule="evenodd" clip-rule="evenodd" d="M10.3564 0.0878906C10.3564 0.0878906 11.0131 0.415294 11.0131 0.680682C11.0131 2.55549 11.0131 5.29027 11.0131 7.52534C11.0131 7.8163 10.3564 8.23911 10.3564 8.23911C10.3564 8.23911 13.6368 8.23911 14.1086 8.23911C14.3431 8.23911 16.9697 7.80962 16.9697 5.78468C16.9697 3.75974 14.9294 3.57013 14.9294 3.57013C14.9294 3.57013 16.1723 3.2246 16.1723 1.83918C16.1723 0.345853 14.3431 0.0878906 14.1086 0.0878906C13.6213 0.0878906 10.3564 0.0878906 10.3564 0.0878906ZM12.3498 3.43594V0.88762C12.3498 0.88762 13.4374 0.88762 13.8741 0.88762C14.1086 0.88762 14.9294 1.16143 14.9294 2.17729C14.9294 3.01462 14.1086 3.43594 13.8741 3.43594C13.3424 3.43594 12.3498 3.43594 12.3498 3.43594ZM12.3498 4.1043C12.3498 4.1043 13.8741 4.1043 14.1086 4.1043C14.3431 4.1043 15.7267 4.4637 15.7267 5.66414C15.7267 6.88804 14.3431 7.32176 14.1086 7.32176C13.8741 7.32176 12.3498 7.32176 12.3498 7.32176V4.1043Z" fill="#005E6A"/>
</svg>
