<svg width="30" height="12" viewBox="0 0 30 12" fill="none" xmlns="http://www.w3.org/2000/svg">
<path d="M9.49483 0.000304222H1.70991C0.765949 0.000304222 0 0.784744 0 1.75365V9.46127C0 10.4213 0.7508 11.2008 1.68429 11.2146L9.48926 11.2148C10.4332 11.2148 11.201 10.4302 11.201 9.46127L11.2047 1.75365C11.2047 0.784744 10.4386 0.000304222 9.49483 0.000304222ZM2.63515 10.3163L2.21029 10.3215C1.69587 10.3215 1.28059 9.89794 1.28059 9.3775L1.27747 9.30242V2.18475L1.28059 1.80111C1.30131 1.29761 1.6834 0.890793 2.18467 0.890793H3.04753C3.83108 0.890793 4.4647 1.57141 4.4647 2.37301C4.4647 2.77113 4.30874 3.13049 4.05655 3.39316L1.85472 5.6264L3.91931 7.72953C4.18443 8.00445 4.34484 8.36515 4.34484 8.75926C4.34484 9.619 3.58089 10.3163 2.63515 10.3163ZM8.98242 10.3099L5.13284 10.3088C5.13284 10.3088 5.57797 9.34587 5.57797 8.7508C5.57797 8.02517 5.33536 7.37574 4.9555 6.94709L3.63948 5.60457L4.98157 4.21748C5.38326 3.84008 5.64838 3.17238 5.64838 2.41289C5.64838 1.81113 5.48217 1.278 5.21304 0.890793H6.14631C6.92919 0.890793 7.56347 1.57141 7.56347 2.37301C7.56347 2.77113 7.40819 3.13049 7.15666 3.39316L4.9956 5.60367L9.48258 10.1795C9.33955 10.2691 9.16087 10.3099 8.98242 10.3099ZM9.92147 8.88068L6.70551 5.60301L8.23696 4.04705C8.54909 3.65605 8.74782 3.069 8.74782 2.41289C8.74782 1.80757 8.5785 1.2604 8.30826 0.873415L8.99289 0.894803C9.50642 0.894803 9.92414 1.31699 9.92414 1.83898L9.92147 8.88068Z" fill="#00529C"/>
<path d="M18.1045 5.08133C18.1671 5.01872 18.241 4.93807 18.3264 4.83938C18.4115 4.74068 18.4921 4.62416 18.5683 4.4896C18.6445 4.35504 18.7095 4.2051 18.7632 4.03912C18.8172 3.87337 18.8441 3.69625 18.8441 3.50799C18.8441 3.14061 18.7813 2.79774 18.6559 2.47937C18.5302 2.16123 18.3375 1.88319 18.0775 1.64547C17.8175 1.4082 17.4927 1.22195 17.1026 1.08739C16.7127 0.953045 16.2575 0.885762 15.7378 0.885762H15.7235H14.229H13.84H12.3086V2.5999V8.53411V10.2988H16.074C16.6207 10.2988 17.0979 10.2249 17.506 10.0769C17.9137 9.929 18.2524 9.72515 18.5213 9.46515C18.7902 9.20516 18.9896 8.90261 19.1197 8.55751C19.2496 8.21241 19.3146 7.84258 19.3146 7.44802C19.3146 6.91912 19.1937 6.44859 18.9517 6.03598C18.7095 5.62382 18.4271 5.30545 18.1045 5.08133ZM16.4395 2.6106C16.5663 2.65894 16.6721 2.72177 16.7548 2.80086C16.9689 3.00627 17.0761 3.25178 17.0761 3.5374C17.0761 3.7965 17.0313 4.0106 16.9422 4.18015C16.8528 4.34991 16.7635 4.47935 16.6744 4.56847H14.0568V2.49942H15.6838C15.9888 2.49942 16.2399 2.53708 16.4395 2.6106ZM16.168 6.1975C16.6418 6.1975 16.993 6.32026 17.2215 6.56533C17.4365 6.80661 17.5448 7.09133 17.5448 7.42084C17.5448 7.76037 17.422 8.05022 17.1765 8.29127C16.9308 8.53233 16.5271 8.65308 15.9646 8.65308H15.7545H14.0568V6.1975H16.168Z" fill="#00529C"/>
<path d="M25.6998 6.24451C25.9821 6.0518 26.2176 5.82767 26.4058 5.57213C26.5941 5.31659 26.7329 5.03432 26.8226 4.72509C26.9122 4.41563 26.9572 4.09972 26.9572 3.7769C26.9572 3.3556 26.8875 2.96795 26.7487 2.61371C26.6094 2.2597 26.4011 1.95493 26.1233 1.69939C25.8453 1.44385 25.4979 1.24445 25.0811 1.10098C24.6643 0.957724 24.1824 0.885762 23.6356 0.885762H23.5864H19.9645H19.9307V10.2988H21.7128V6.8026H22.7064L25.164 10.2988H27.2529L24.7115 6.68162C25.0878 6.58315 25.4173 6.43745 25.6998 6.24451ZM23.649 2.49942C23.7611 2.49942 23.8669 2.50678 23.9676 2.51948C24.2853 2.56738 24.5449 2.68077 24.7449 2.86101C25.0172 3.10675 25.1533 3.40796 25.1533 3.76487C25.1533 3.94377 25.1241 4.11776 25.0662 4.28731C25.008 4.45707 24.9167 4.60656 24.7917 4.73578C24.6665 4.86545 24.5059 4.97016 24.3096 5.05058C24.1131 5.13101 23.8765 5.17111 23.5998 5.17111H21.7128V2.49942H23.649Z" fill="#00529C"/>
<path d="M27.8813 0.885761V0.888435C27.8633 0.887989 27.8457 0.885761 27.8276 0.885761H27.8125V0.886429V4.33677V6.80906V10.2988H29.6296V0.885761H27.8813Z" fill="#00529C"/>
</svg>
