<svg width="30" height="9" viewBox="0 0 30 9" fill="none" xmlns="http://www.w3.org/2000/svg">
<path fill-rule="evenodd" clip-rule="evenodd" d="M21.8158 0.333913C21.2455 0.675067 19.9001 1.47206 19.3979 1.76886C19.0918 1.92992 18.3829 2.00025 17.982 1.44182C17.9748 1.43174 17.4487 0.752735 17.4272 0.727168C17.4122 0.709102 17.072 0.188015 16.3142 0.171724C16.2022 0.168982 15.6455 0.165917 15.1023 0.484811C14.3803 0.910891 12.7011 1.9025 12.7011 1.9025C12.7006 1.9025 12.7006 1.90338 12.6997 1.90338C12.0095 2.31132 11.4717 2.62892 11.4717 2.62892L12.1071 3.43503C12.4044 3.81627 13.0747 4.11121 13.656 3.76651C13.656 3.76651 15.8039 2.48173 15.8118 2.47802C16.7407 1.95178 17.4575 1.95177 17.9333 2.1476C18.3603 2.33398 18.7318 2.79837 18.7318 2.79837C18.7318 2.79837 19.2173 3.41987 19.303 3.52859C19.5792 3.87982 20.0364 3.74183 20.0364 3.74183C20.0364 3.74183 20.2059 3.72199 20.4613 3.56536C20.4613 3.56536 22.5418 2.3193 22.5432 2.3189C23.2038 1.91855 23.8097 1.84378 24.1194 1.87322C25.0893 1.96428 25.3906 2.66417 25.8112 3.15243C26.0588 3.43963 26.2823 3.6027 26.6241 3.59448C26.8486 3.58956 27.1023 3.4489 27.1397 3.4235L29.6311 1.93839C29.6311 1.93839 29.3755 1.5407 28.8519 0.921941C28.3834 0.369884 27.8857 0.61966 27.4889 0.822659C27.3222 0.907827 26.7181 1.32286 26.1197 1.61239C25.6933 1.81862 25.0809 1.7566 24.7452 1.32818C24.7251 1.30213 24.1821 0.623048 24.125 0.539493C23.9058 0.255924 23.4782 0.00195312 22.9301 0.00195312C22.5969 0.00195312 22.2187 0.095831 21.8158 0.333913Z" fill="url(#paint0_linear_42418_4025)"/>
<path fill-rule="evenodd" clip-rule="evenodd" d="M0.0312323 6.14102C0.0312323 5.6976 0.0234243 5.32547 0 4.99368H0.812666L0.850769 5.56372H0.873569C1.05776 5.26249 1.3946 4.90625 2.02292 4.90625C2.51335 4.90625 2.89641 5.19184 3.05702 5.61904H3.07279C3.20327 5.4054 3.35599 5.24724 3.53207 5.13603C3.73914 4.98585 3.97674 4.90625 4.2832 4.90625C4.90364 4.90625 5.53148 5.34144 5.53148 6.57621V8.84727H4.61224V6.71888C4.61224 6.07795 4.39806 5.6976 3.94629 5.6976C3.62397 5.6976 3.38621 5.93544 3.28728 6.21256C3.26401 6.30724 3.24106 6.42604 3.24106 6.53605V8.84727H2.3215V6.61565C2.3215 6.07795 2.11498 5.6976 1.67819 5.6976C1.32574 5.6976 1.08853 5.98294 1.00404 6.25143C0.96547 6.347 0.95001 6.45749 0.95001 6.56807V8.84727H0.0312323V6.14102Z" fill="#003A70"/>
<path fill-rule="evenodd" clip-rule="evenodd" d="M9.11263 7.9205C9.11263 8.26851 9.12793 8.60821 9.16627 8.84629H8.31558L8.25452 8.41908H8.23125C8.00154 8.72007 7.61082 8.93339 7.1282 8.93339C6.37722 8.93339 5.95605 8.37198 5.95605 7.78605C5.95605 6.81235 6.79082 6.32215 8.16996 6.32998V6.26642C8.16996 6.0131 8.07025 5.59395 7.41148 5.59395C7.04356 5.59395 6.66034 5.71275 6.40767 5.87865L6.22356 5.24611C6.49989 5.07166 6.98297 4.90527 7.57241 4.90527C8.76806 4.90527 9.11263 5.6892 9.11263 6.52765V7.9205ZM8.19294 6.96232C7.52652 6.94635 6.89079 7.09669 6.89079 7.68238C6.89079 8.06184 7.12823 8.23629 7.42713 8.23629C7.80207 8.23629 8.07832 7.98296 8.16233 7.70609C8.18513 7.63487 8.19294 7.55543 8.19294 7.49236V6.96232Z" fill="#003A70"/>
<path fill-rule="evenodd" clip-rule="evenodd" d="M9.76514 6.14102C9.76514 5.6976 9.75671 5.32547 9.73438 4.99368H10.5611L10.6073 5.5713H10.63C10.791 5.27095 11.1971 4.90625 11.8175 4.90625C12.4689 4.90625 13.1431 5.34144 13.1431 6.5604V8.84727H12.2009V6.67146C12.2009 6.11715 12.0017 5.6976 11.4883 5.6976C11.1129 5.6976 10.8525 5.97464 10.7526 6.26756C10.7225 6.35482 10.7145 6.47379 10.7145 6.58379V8.84727H9.76514V6.14102Z" fill="#003A70"/>
<path fill-rule="evenodd" clip-rule="evenodd" d="M17.2273 3.44434V7.76199C17.2273 8.15759 17.2424 8.58568 17.2578 8.84651H16.415L16.3772 8.23727H16.3616C16.1393 8.6648 15.6866 8.93361 15.1433 8.93361C14.2549 8.93361 13.5499 8.15033 13.5499 6.96331C13.5421 5.67329 14.3235 4.90549 15.2198 4.90549C15.7329 4.90549 16.101 5.12736 16.2693 5.41247H16.2848V3.44434H17.2273ZM16.2854 6.5978C16.2854 6.51949 16.2775 6.42408 16.2628 6.3452C16.1784 5.96534 15.8794 5.65652 15.4503 5.65652C14.8451 5.65652 14.508 6.21076 14.508 6.93089C14.508 7.63498 14.8451 8.14945 15.4427 8.14945C15.8256 8.14945 16.1629 7.88048 16.2547 7.46117C16.2775 7.37375 16.2854 7.2789 16.2854 7.17567V6.5978Z" fill="#003A70"/>
<path fill-rule="evenodd" clip-rule="evenodd" d="M17.8936 8.84749H18.8445V4.99414H17.8936V8.84749Z" fill="#003A70"/>
<path fill-rule="evenodd" clip-rule="evenodd" d="M19.5113 6.23491C19.5113 5.71285 19.5033 5.3404 19.4805 4.99256H20.3004L20.3304 5.72826H20.3622C20.5457 5.18225 20.9825 4.99256 21.3807 4.99256C21.4725 4.99256 21.526 4.97635 21.6029 4.99256V5.84746C21.526 5.83165 21.4419 5.81584 21.327 5.81584C20.8751 5.81584 20.5684 6.11627 20.4842 6.55122C20.4693 6.63832 20.4538 6.74164 20.4538 6.85294V8.84639H19.5113V6.23491Z" fill="#003A70"/>
<path fill-rule="evenodd" clip-rule="evenodd" d="M22.04 8.84749H22.9896V4.99414H22.04V8.84749Z" fill="#003A70"/>
<defs>
<linearGradient id="paint0_linear_42418_4025" x1="11.4717" y1="3.91916" x2="29.6311" y2="3.91916" gradientUnits="userSpaceOnUse">
<stop stop-color="#FFCA06"/>
<stop offset="0.330844" stop-color="#FBAA18"/>
<stop offset="0.694742" stop-color="#FFC907"/>
<stop offset="1" stop-color="#FAA619"/>
</linearGradient>
</defs>
</svg>
